<mxfile host="app.diagrams.net" agent="Mozilla/5.0 (Windows NT 10.0; Win64; x64) AppleWebKit/537.36 (KHTML, like Gecko) Chrome/132.0.0.0 Safari/537.36" version="26.0.10">
  <diagram name="Page-1" id="b_2MA-meo6QKqCkerGOv">
    <mxGraphModel dx="4015" dy="3339" grid="1" gridSize="10" guides="1" tooltips="1" connect="1" arrows="1" fold="1" page="1" pageScale="1" pageWidth="827" pageHeight="1169" math="0" shadow="0">
      <root>
        <mxCell id="0" />
        <mxCell id="1" parent="0" />
        <mxCell id="wlqEMiW_J_UeRlToyR7V-1" value="" style="rounded=1;whiteSpace=wrap;html=1;rotation=90;aspect=fixed;" parent="1" vertex="1">
          <mxGeometry x="350" y="120" width="1920" height="1080" as="geometry" />
        </mxCell>
      </root>
    </mxGraphModel>
  </diagram>
</mxfile>
